<?xml version="1.0" standalone="no"?>
<!DOCTYPE svg PUBLIC "-//W3C//DTD SVG 20010904//EN"
 "http://www.w3.org/TR/2001/REC-SVG-20010904/DTD/svg10.dtd">
<svg version="1.0" xmlns="http://www.w3.org/2000/svg"
 width="512.000000pt" height="512.000000pt" viewBox="0 0 512.000000 512.000000"
 preserveAspectRatio="xMidYMid meet">
<metadata>
Created by potrace 1.14, written by Peter Selinger 2001-2017
</metadata>
<g transform="translate(0.000000,512.000000) scale(0.100000,-0.100000)"
fill="#000000" stroke="none">
<path d="M2445 5110 c-153 -9 -367 -37 -375 -50 -3 -4 -28 -15 -57 -23 -50
-15 -203 -91 -213 -107 -3 -4 -53 -31 -112 -60 -60 -29 -108 -56 -108 -60 0
-4 -53 -33 -118 -65 -117 -57 -118 -58 -167 -132 -28 -41 -55 -78 -61 -81 -15
-9 -84 -100 -84 -111 0 -5 -17 -26 -38 -47 -21 -22 -56 -65 -77 -97 -21 -33
-44 -61 -51 -64 -7 -2 -18 -18 -24 -34 -7 -16 -18 -33 -26 -37 -7 -4 -26 -76
-44 -167 -18 -88 -36 -161 -41 -163 -5 -2 -9 -11 -9 -20 0 -9 -16 -97 -35
-195 l-35 -178 37 -187 c20 -103 40 -189 43 -192 4 -3 19 -68 34 -145 28 -144
25 -139 96 -216 8 -9 35 -49 60 -87 25 -39 50 -71 55 -71 6 -1 18 -13 27 -29
36 -59 101 -148 118 -161 14 -12 16 -21 8 -49 -5 -19 -8 -56 -5 -81 6 -56 99
-444 107 -451 4 -3 17 -50 29 -105 13 -55 31 -127 41 -160 9 -33 26 -96 36
-140 10 -44 21 -82 24 -85 3 -3 23 -84 43 -180 41 -187 58 -236 88 -258 10 -7
19 -19 19 -25 0 -7 16 -36 35 -64 19 -29 35 -56 35 -60 0 -4 15 -25 33 -45 18
-21 40 -50 47 -65 23 -46 73 -117 87 -126 7 -4 13 -13 13 -18 0 -6 11 -25 24
-42 13 -18 32 -48 43 -67 10 -19 45 -61 77 -92 32 -32 55 -58 51 -58 -4 0 20
-26 53 -58 33 -31 62 -65 65 -75 6 -16 28 -17 374 -11 302 4 370 8 383 20 8 8
47 37 85 64 39 27 79 58 90 68 42 39 113 92 122 92 6 0 30 25 53 56 23 31 51
63 61 72 11 9 19 20 19 24 0 12 100 140 124 159 12 10 35 37 52 61 16 24 49
64 73 90 41 43 47 55 73 164 16 65 32 121 36 124 10 7 69 243 94 375 12 61 24
112 28 115 6 5 10 24 60 295 35 190 62 308 71 315 3 3 9 22 13 43 5 25 22 52
51 83 25 25 45 51 45 58 0 6 8 16 19 23 10 6 39 43 65 82 26 38 50 71 54 73 5
2 30 33 56 70 26 38 53 71 61 75 7 5 20 23 29 41 10 18 32 50 50 70 22 25 35
52 40 82 4 24 10 47 14 50 10 7 116 526 116 565 0 42 -104 549 -114 555 -4 3
-11 26 -15 52 -5 32 -17 59 -37 80 -16 18 -36 47 -45 63 -9 17 -25 39 -37 51
-32 31 -66 73 -66 82 0 4 -20 30 -45 57 -25 28 -45 54 -45 59 0 9 -36 55 -77
100 -14 15 -36 42 -48 60 -25 37 -70 86 -78 86 -3 0 -18 11 -32 25 -14 14 -63
44 -110 66 -47 21 -85 43 -85 48 0 5 -48 32 -107 61 -58 29 -115 61 -126 71
-12 10 -26 19 -33 19 -7 0 -29 11 -49 25 -38 25 -135 65 -160 65 -8 0 -15 4
-15 8 0 35 -532 68 -835 52z"/>
</g>
</svg>
